<svg xmlns="http://www.w3.org/2000/svg" style="display: none;">
    <!-- Social Media Icons -->
    <symbol id="twitter" viewBox="0 0 24 24">
        <path d="M23 3a10.9 10.9 0 01-3.14 1.53 4.48 4.48 0 00-7.86 3v1A10.66 10.66 0 013 4s-4 9 5 13a11.64 11.64 0 01-7 2c9 5 20 0 20-11.5a4.5 4.5 0 00-.08-.83A7.72 7.72 0 0023 3z"/>
    </symbol>

    <symbol id="facebook" viewBox="0 0 24 24">
        <path d="M18 2h-3a5 5 0 00-5 5v3H7v4h3v8h4v-8h3l1-4h-4V7a1 1 0 011-1h3z"/>
    </symbol>

    <symbol id="instagram" viewBox="0 0 24 24">
        <rect x="2" y="2" width="20" height="20" rx="5" ry="5"/>
        <path d="M16 11.37A4 4 0 1112.63 8 4 4 0 0116 11.37zM17.5 6.5h.01"/>
    </symbol>

    <symbol id="linkedin" viewBox="0 0 24 24">
        <path d="M16 8a6 6 0 016 6v7h-4v-7a2 2 0 00-2-2 2 2 0 00-2 2v7h-4v-7a6 6 0 016-6zM2 9h4v12H2z"/>
        <circle cx="4" cy="4" r="2"/>
    </symbol>

    <!-- Contact Icons -->
    <symbol id="mail" viewBox="0 0 24 24">
        <path d="M4 4h16c1.1 0 2 .9 2 2v12c0 1.1-.9 2-2 2H4c-1.1 0-2-.9-2-2V6c0-1.1.9-2 2-2z"/>
        <polyline points="22,6 12,13 2,6"/>
    </symbol>

    <symbol id="map-pin" viewBox="0 0 24 24">
        <path d="M21 10c0 7-9 13-9 13s-9-6-9-13a9 9 0 0118 0z"/>
        <circle cx="12" cy="10" r="3"/>
    </symbol>

    <!-- Hobby Icons -->
    <symbol id="book-open" viewBox="0 0 24 24">
        <path d="M2 3h6a4 4 0 014 4v14a3 3 0 00-3-3H2zM22 3h-6a4 4 0 00-4 4v14a3 3 0 013-3h7z"/>
    </symbol>

    <symbol id="paint-brush" viewBox="0 0 24 24">
        <path d="M14.8 4.2L19.8 9.2c.4.4.4 1 0 1.4l-8.5 8.5c-.4.4-1 .4-1.4 0l-5-5c-.4-.4-.4-1 0-1.4l8.5-8.5c.4-.4 1-.4 1.4 0z"/>
        <path d="M4 20L1 23l3-3"/>
    </symbol>

    <symbol id="music" viewBox="0 0 24 24">
        <path d="M9 18V5l12-2v13"/>
        <circle cx="6" cy="18" r="3"/>
        <circle cx="18" cy="16" r="3"/>
    </symbol>

    <symbol id="camera" viewBox="0 0 24 24">
        <path d="M23 19a2 2 0 01-2 2H3a2 2 0 01-2-2V8a2 2 0 012-2h4l2-3h6l2 3h4a2 2 0 012 2z"/>
        <circle cx="12" cy="13" r="4"/>
    </symbol>

    <symbol id="gamepad" viewBox="0 0 24 24">
        <path d="M6 12h4M8 10v4m7-2h.01M18 10h.01"/>
        <path d="M17 2H7L2 7l3 13c.5 2 2 3 4 3h6c2 0 3.5-1 4-3l3-13-5-5z"/>
    </symbol>

    <symbol id="dumbbell" viewBox="0 0 24 24">
        <path d="M3 9h3v6H3zM18 9h3v6h-3zM6 12h12M6 9h.01M17.99 9h.01M6 15h.01M17.99 15h.01"/>
    </symbol>

    <symbol id="utensils" viewBox="0 0 24 24">
        <path d="M3 2v7c0 1.1.9 2 2 2h4a2 2 0 002-2V2M7 2v20M21 15V2v0a5 5 0 00-5 5v6c0 1.1.9 2 2 2h3zM21 15v7"/>
    </symbol>

    <symbol id="plane" viewBox="0 0 24 24">
        <path d="M17.8 19.2L16 11l3.5-3.5c.8-.8.8-2 0-2.8s-2-.8-2.8 0L13 8 4.8 6.2c-.5-.1-.9.1-1.1.5l-.3.5c-.2.5-.1 1 .3 1.3L9 12l-2 3H4l-1 1 3 2 2 3 1-1v-3l3-2 3.5 5.3c.3.4.8.5 1.3.3l.5-.2c.4-.3.6-.7.5-1.2z"/>
    </symbol>

    <symbol id="tree" viewBox="0 0 24 24">
        <path d="M12 3L8 10h2v8a2 2 0 002 2 2 2 0 002-2v-8h2z"/>
        <path d="M12 20v2"/>
    </symbol>

    <symbol id="heart" viewBox="0 0 24 24">
        <path d="M20.84 4.61a5.5 5.5 0 00-7.78 0L12 5.67l-1.06-1.06a5.5 5.5 0 00-7.78 7.78l1.06 1.06L12 21.23l7.78-7.78 1.06-1.06a5.5 5.5 0 000-7.78z"/>
    </symbol>

    <symbol id="laptop" viewBox="0 0 24 24">
        <rect x="2" y="4" width="20" height="14" rx="2" ry="2"/>
        <line x1="2" y1="18" x2="22" y2="18"/>
    </symbol>

    <symbol id="car" viewBox="0 0 24 24">
        <path d="M19 17h2c.6 0 1-.4 1-1v-3c0-.9-.7-1.7-1.5-1.9C18.7 10.6 16 10 16 10l-1.1-6c-.1-.5-.6-.9-1.1-.9h-3.6c-.5 0-1 .4-1.1.9L8 10s-2.7.6-4.5 1.1c-.8.2-1.5 1-1.5 1.9v3c0 .6.4 1 1 1h2m14 0a2 2 0 11-4 0m4 0H7m-2 0a2 2 0 11-4 0"/>
    </symbol>

    <symbol id="paw" viewBox="0 0 24 24">
        <circle cx="11" cy="4" r="2"/>
        <circle cx="18" cy="8" r="2"/>
        <circle cx="20" cy="16" r="2"/>
        <path d="M9 10a5 5 0 015 5v3.5a3.5 3.5 0 01-6.84 1.045Q6.52 17.48 4.46 16.84A3.5 3.5 0 015 10z"/>
    </symbol>

    <symbol id="seedling" viewBox="0 0 24 24">
        <path d="M12 22s8-4 8-10V5l-8-3-8 3v7c0 6 8 10 8 10z"/>
        <path d="M12 10l-4 4h8l-4-4z"/>
    </symbol>

    <symbol id="chess" viewBox="0 0 24 24">
        <path d="M9 2a2 2 0 012 2v4a2 2 0 01-2 2H7a2 2 0 01-2-2V4a2 2 0 012-2zM19 2a2 2 0 012 2v4a2 2 0 01-2 2h-2a2 2 0 01-2-2V4a2 2 0 012-2zM5 14h14l-1 6H6z"/>
    </symbol>

    <symbol id="swimmer" viewBox="0 0 24 24">
        <circle cx="8" cy="5" r="2"/>
        <path d="M15 5H9l-1 12h8l-1-12zM2 21s3-2 5-2 5 2 5 2 3-2 5-2 5 2 5 2"/>
    </symbol>

    <symbol id="bicycle" viewBox="0 0 24 24">
        <circle cx="5.5" cy="17.5" r="3.5"/>
        <circle cx="18.5" cy="17.5" r="3.5"/>
        <path d="M15 6a1 1 0 100-2 1 1 0 000 2zM12 17.5V14l-3-3 4-3 2 3h3"/>
    </symbol>

    <symbol id="guitar" viewBox="0 0 24 24">
        <path d="M11 11.31c0-1.17.95-2.12 2.12-2.12h.78c1.17 0 2.12.95 2.12 2.12v.78c0 1.17-.95 2.12-2.12 2.12h-.78c-1.17 0-2.12-.95-2.12-2.12v-.78z"/>
        <path d="M11 11.31V6.5L13.83 3.67a2.12 2.12 0 013 3L14 9.5l-3 1.81z"/>
        <circle cx="7" cy="17" r="3"/>
    </symbol>

    <symbol id="palette" viewBox="0 0 24 24">
        <circle cx="12" cy="12" r="10"/>
        <circle cx="8" cy="8" r="1.5"/>
        <circle cx="16" cy="8" r="1.5"/>
        <circle cx="8" cy="16" r="1.5"/>
        <circle cx="16" cy="16" r="1.5"/>
        <circle cx="12" cy="12" r="1.5"/>
    </symbol>

    <symbol id="coffee" viewBox="0 0 24 24">
        <path d="M18 8h1a4 4 0 010 8h-1"/>
        <path d="M2 8h16v9a4 4 0 01-4 4H6a4 4 0 01-4-4V8zM6 1v3M10 1v3M14 1v3"/>
    </symbol>
</svg>

